#Comment line ignore any data following # character 
#Hierarchical Translation and Rotation (.htr) file 
[Header]	
#Header keywords are followed by a single value 
FileType HTR		#Single word string
DataType HTRS		#Translation followed by rotation and scale data
FileVersion 1		#integer
NumSegments 84		#integer
NumFrames 2		#integer
DataFrameRate 30		#integer, data frame rate in this file
EulerRotationOrder ZYX
CalibrationUnits mm
RotationUnits Degrees
GlobalAxisofGravity Y
BoneLengthAxis Y
ScaleFactor 1.00
[SegmentNames&Hierarchy]
#CHILD	PARENT
MASTER GLOBAL
root MASTER
chest root
L_mid_tent01 root
R_mid_tent01 root
spine01 root
Bip01_Neck chest
L_humerus chest
R_humerus chest
weapon_bone chest
Bip01_Head Bip01_Neck
eye_left_bone Bip01_Head
eye_right_bone Bip01_Head
L_forearm L_humerus
L_front_hand L_forearm
L_weapon_bone L_forearm
L_front_hand01_01 L_front_hand
L_front_hand02_01 L_front_hand
L_front_hand03_01 L_front_hand
L_front_hand01_02 L_front_hand01_01
L_front_hand02_02 L_front_hand02_01
L_front_hand03_02 L_front_hand03_01
R_forearm R_humerus
R_front_hand R_forearm
R_weapon_bone R_forearm
R_front_hand01_01 R_front_hand
R_front_hand02_01 R_front_hand
R_front_hand03_01 R_front_hand
R_front_hand01_02 R_front_hand01_01
R_front_hand02_02 R_front_hand02_01
R_front_hand03_02 R_front_hand03_01
null_rope01_connect L_mid_tent01
Rope1_Seg01 null_rope01_connect
Rope1_Seg02 Rope1_Seg01
Rope1_Seg03 Rope1_Seg02
Rope1_Seg04 Rope1_Seg03
Rope1_Seg05 Rope1_Seg04
Rope1_Seg06 Rope1_Seg05
Rope1_Seg07 Rope1_Seg06
Rope1_Seg09 Rope1_Seg07
L_mid_hand01 Rope1_Seg09
L_mid_hand02 Rope1_Seg09
L_mid_hand03 Rope1_Seg09
null_rope02_connect R_mid_tent01
Rope2_Seg01 null_rope02_connect
Rope2_Seg02 Rope2_Seg01
Rope2_Seg03 Rope2_Seg02
Rope2_Seg04 Rope2_Seg03
Rope2_Seg05 Rope2_Seg04
Rope2_Seg06 Rope2_Seg05
Rope2_Seg07 Rope2_Seg06
Rope2_Seg09 Rope2_Seg07
R_mid_hand01 Rope2_Seg09
R_mid_hand02 Rope2_Seg09
R_mid_hand03 Rope2_Seg09
spine02 spine01
spine03 spine02
pelvis spine03
null_rope03_connect pelvis
null_rope04_connect pelvis
Rope3_Seg01 null_rope03_connect
Rope3_Seg02 Rope3_Seg01
Rope3_Seg03 Rope3_Seg02
Rope3_Seg04 Rope3_Seg03
Rope3_Seg05 Rope3_Seg04
Rope3_Seg06 Rope3_Seg05
Rope3_Seg07 Rope3_Seg06
Rope3_Seg08 Rope3_Seg07
Rope3_Seg09 Rope3_Seg08
R_rear_hand01 Rope3_Seg09
R_rear_hand02 Rope3_Seg09
R_rear_hand03 Rope3_Seg09
Rope4_Seg01 null_rope04_connect
Rope4_Seg02 Rope4_Seg01
Rope4_Seg03 Rope4_Seg02
Rope4_Seg04 Rope4_Seg03
Rope4_Seg05 Rope4_Seg04
Rope4_Seg06 Rope4_Seg05
Rope4_Seg07 Rope4_Seg06
Rope4_Seg08 Rope4_Seg07
Rope4_Seg09 Rope4_Seg08
L_rear_hand01 Rope4_Seg09
L_rear_hand02 Rope4_Seg09
L_rear_hand03 Rope4_Seg09
[BasePosition]
#SegmentName Tx, Ty, Tz, Rx, Ry, Rz, BoneLength
MASTER 0.000000 0.000000 0.000000 -90.000000 0.000000 0.000000 10.000000 
root 0.000000 0.000000 0.000000 0.000000 0.000000 0.000000 10.000000 
chest 0.000000 0.000000 0.000000 0.000000 0.000000 0.000000 10.000000 
L_mid_tent01 0.000000 0.000000 0.000000 0.000000 0.000000 0.000000 10.000000 
R_mid_tent01 0.000000 0.000000 0.000000 0.000000 0.000000 0.000000 10.000000 
spine01 0.000000 0.000000 0.000000 0.000000 0.000000 0.000000 10.000000 
Bip01_Neck 0.000000 0.000000 0.000000 0.000000 0.000000 0.000000 10.000000 
L_humerus 0.000000 0.000000 0.000000 0.000000 0.000000 0.000000 10.000000 
R_humerus 0.000000 0.000000 0.000000 0.000000 0.000000 0.000000 10.000000 
weapon_bone 0.000000 0.000000 0.000000 0.000000 0.000000 0.000000 10.000000 
Bip01_Head 0.000000 0.000000 0.000000 0.000000 0.000000 0.000000 10.000000 
eye_left_bone 0.000000 0.000000 0.000000 0.000000 0.000000 0.000000 10.000000 
eye_right_bone 0.000000 0.000000 0.000000 0.000000 0.000000 0.000000 10.000000 
L_forearm 0.000000 0.000000 0.000000 0.000000 0.000000 0.000000 10.000000 
L_front_hand 0.000000 0.000000 0.000000 0.000000 0.000000 0.000000 10.000000 
L_weapon_bone 0.000000 0.000000 0.000000 0.000000 0.000000 0.000000 10.000000 
L_front_hand01_01 0.000000 0.000000 0.000000 0.000000 0.000000 0.000000 10.000000 
L_front_hand02_01 0.000000 0.000000 0.000000 0.000000 0.000000 0.000000 10.000000 
L_front_hand03_01 0.000000 0.000000 0.000000 0.000000 0.000000 0.000000 10.000000 
L_front_hand01_02 0.000000 0.000000 0.000000 0.000000 0.000000 0.000000 10.000000 
L_front_hand02_02 0.000000 0.000000 0.000000 0.000000 0.000000 0.000000 10.000000 
L_front_hand03_02 0.000000 0.000000 0.000000 0.000000 0.000000 0.000000 10.000000 
R_forearm 0.000000 0.000000 0.000000 0.000000 0.000000 0.000000 10.000000 
R_front_hand 0.000000 0.000000 0.000000 0.000000 0.000000 0.000000 10.000000 
R_weapon_bone 0.000000 0.000000 0.000000 0.000000 0.000000 0.000000 10.000000 
R_front_hand01_01 0.000000 0.000000 0.000000 0.000000 0.000000 0.000000 10.000000 
R_front_hand02_01 0.000000 0.000000 0.000000 0.000000 0.000000 0.000000 10.000000 
R_front_hand03_01 0.000000 0.000000 0.000000 0.000000 0.000000 0.000000 10.000000 
R_front_hand01_02 0.000000 0.000000 0.000000 0.000000 0.000000 0.000000 10.000000 
R_front_hand02_02 0.000000 0.000000 0.000000 0.000000 0.000000 0.000000 10.000000 
R_front_hand03_02 0.000000 0.000000 0.000000 0.000000 0.000000 0.000000 10.000000 
null_rope01_connect 0.000000 0.000000 0.000000 0.000000 0.000000 0.000000 10.000000 
Rope1_Seg01 0.000000 0.000000 0.000000 0.000000 0.000000 0.000000 10.000000 
Rope1_Seg02 0.000000 0.000000 0.000000 0.000000 0.000000 0.000000 10.000000 
Rope1_Seg03 0.000000 0.000000 0.000000 0.000000 0.000000 0.000000 10.000000 
Rope1_Seg04 0.000000 0.000000 0.000000 0.000000 0.000000 0.000000 10.000000 
Rope1_Seg05 0.000000 0.000000 0.000000 0.000000 0.000000 0.000000 10.000000 
Rope1_Seg06 0.000000 0.000000 0.000000 0.000000 0.000000 0.000000 10.000000 
Rope1_Seg07 0.000000 0.000000 0.000000 0.000000 0.000000 0.000000 10.000000 
Rope1_Seg09 0.000000 0.000000 0.000000 0.000000 0.000000 0.000000 10.000000 
L_mid_hand01 0.000000 0.000000 0.000000 0.000000 0.000000 0.000000 10.000000 
L_mid_hand02 0.000000 0.000000 0.000000 0.000000 0.000000 0.000000 10.000000 
L_mid_hand03 0.000000 0.000000 0.000000 0.000000 0.000000 0.000000 10.000000 
null_rope02_connect 0.000000 0.000000 0.000000 0.000000 0.000000 0.000000 10.000000 
Rope2_Seg01 0.000000 0.000000 0.000000 0.000000 0.000000 0.000000 10.000000 
Rope2_Seg02 0.000000 0.000000 0.000000 0.000000 0.000000 0.000000 10.000000 
Rope2_Seg03 0.000000 0.000000 0.000000 0.000000 0.000000 0.000000 10.000000 
Rope2_Seg04 0.000000 0.000000 0.000000 0.000000 0.000000 0.000000 10.000000 
Rope2_Seg05 0.000000 0.000000 0.000000 0.000000 0.000000 0.000000 10.000000 
Rope2_Seg06 0.000000 0.000000 0.000000 0.000000 0.000000 0.000000 10.000000 
Rope2_Seg07 0.000000 0.000000 0.000000 0.000000 0.000000 0.000000 10.000000 
Rope2_Seg09 0.000000 0.000000 0.000000 0.000000 0.000000 0.000000 10.000000 
R_mid_hand01 0.000000 0.000000 0.000000 0.000000 0.000000 0.000000 10.000000 
R_mid_hand02 0.000000 0.000000 0.000000 0.000000 0.000000 0.000000 10.000000 
R_mid_hand03 0.000000 0.000000 0.000000 0.000000 0.000000 0.000000 10.000000 
spine02 0.000000 0.000000 0.000000 0.000000 0.000000 0.000000 10.000000 
spine03 0.000000 0.000000 0.000000 0.000000 0.000000 0.000000 10.000000 
pelvis 0.000000 0.000000 0.000000 0.000000 0.000000 0.000000 10.000000 
null_rope03_connect 0.000000 0.000000 0.000000 0.000000 0.000000 0.000000 10.000000 
null_rope04_connect 0.000000 0.000000 0.000000 0.000000 0.000000 0.000000 10.000000 
Rope3_Seg01 0.000000 0.000000 0.000000 0.000000 0.000000 0.000000 10.000000 
Rope3_Seg02 0.000000 0.000000 0.000000 0.000000 0.000000 0.000000 10.000000 
Rope3_Seg03 0.000000 0.000000 0.000000 0.000000 0.000000 0.000000 10.000000 
Rope3_Seg04 0.000000 0.000000 0.000000 0.000000 0.000000 0.000000 10.000000 
Rope3_Seg05 0.000000 0.000000 0.000000 0.000000 0.000000 0.000000 10.000000 
Rope3_Seg06 0.000000 0.000000 0.000000 0.000000 0.000000 0.000000 10.000000 
Rope3_Seg07 0.000000 0.000000 0.000000 0.000000 0.000000 0.000000 10.000000 
Rope3_Seg08 0.000000 0.000000 0.000000 0.000000 0.000000 0.000000 10.000000 
Rope3_Seg09 0.000000 0.000000 0.000000 0.000000 0.000000 0.000000 10.000000 
R_rear_hand01 0.000000 0.000000 0.000000 0.000000 0.000000 0.000000 10.000000 
R_rear_hand02 0.000000 0.000000 0.000000 0.000000 0.000000 0.000000 10.000000 
R_rear_hand03 0.000000 0.000000 0.000000 0.000000 0.000000 0.000000 10.000000 
Rope4_Seg01 0.000000 0.000000 0.000000 0.000000 0.000000 0.000000 10.000000 
Rope4_Seg02 0.000000 0.000000 0.000000 0.000000 0.000000 0.000000 10.000000 
Rope4_Seg03 0.000000 0.000000 0.000000 0.000000 0.000000 0.000000 10.000000 
Rope4_Seg04 0.000000 0.000000 0.000000 0.000000 0.000000 0.000000 10.000000 
Rope4_Seg05 0.000000 0.000000 0.000000 0.000000 0.000000 0.000000 10.000000 
Rope4_Seg06 0.000000 0.000000 0.000000 0.000000 0.000000 0.000000 10.000000 
Rope4_Seg07 0.000000 0.000000 0.000000 0.000000 0.000000 0.000000 10.000000 
Rope4_Seg08 0.000000 0.000000 0.000000 0.000000 0.000000 0.000000 10.000000 
Rope4_Seg09 0.000000 0.000000 0.000000 0.000000 0.000000 0.000000 10.000000 
L_rear_hand01 0.000000 0.000000 0.000000 0.000000 0.000000 0.000000 10.000000 
L_rear_hand02 0.000000 0.000000 0.000000 0.000000 0.000000 0.000000 10.000000 
L_rear_hand03 0.000000 0.000000 0.000000 0.000000 0.000000 0.000000 10.000000 
#Beginning of Data. Separated by tabs
#Fr	Tx	Ty	Tz	Rx	Ry	Rz	SF
[MASTER]
35 -0.000685 4545.729980 -3131.841797 0.001660 0.001660 0.001660 5520.153809
36 -0.000697 4635.522461 -3200.000000 0.001660 0.001660 0.001660 5632.767578
[root]
35 -33.894638 -231.047653 702.113647 -85.550407 -20.795782 -91.653687 739.929321
36 -16.502232 -248.837830 750.850403 -83.778473 -20.791889 -91.776192 791.182007
[chest]
35 -84.512650 -34.090519 0.000000 -7.672464 -0.372073 153.317688 91.129311
36 -84.512650 -34.090519 0.000000 -7.264210 -0.235148 154.738159 91.129311
[L_mid_tent01]
35 27.299269 22.177677 -249.918289 -0.285052 35.819645 68.097626 252.381165
36 27.299261 22.177683 -249.918289 -0.173843 36.621185 68.161697 252.381165
[R_mid_tent01]
35 23.228794 24.509907 226.238495 162.852951 -26.055338 81.064507 228.744751
36 23.228794 24.509907 226.238495 161.842850 -26.101650 83.323845 228.744751
[spine01]
35 -0.361383 -0.195265 0.000000 0.001845 0.001451 13.654368 0.410763
36 -0.361383 -0.195265 0.000000 0.001845 0.001451 13.654368 0.410763
[Bip01_Neck]
35 165.484543 71.581718 0.000119 176.643677 -1.657967 43.431911 180.302734
36 165.484543 71.581718 0.000119 176.643677 -1.657967 43.431911 180.302734
[L_humerus]
35 -13.983130 -135.272980 -120.471481 172.176697 -2.811818 -89.199638 181.680161
36 -13.983130 -135.272980 -120.471481 172.179993 1.425505 -89.778122 181.680161
[R_humerus]
35 -13.983309 -135.273102 125.287651 -176.999466 6.507329 -85.205070 184.909012
36 -13.983309 -135.273102 125.287651 -177.014343 2.678867 -85.399727 184.909012
[weapon_bone]
35 235.964890 -300.705902 0.000000 0.000000 -89.951546 -128.212341 382.234833
36 235.964890 -300.705902 0.000000 0.000000 -89.951546 -128.212341 382.234833
[Bip01_Head]
35 213.362778 185.942169 8.852020 5.200446 6.151311 -43.834991 283.154602
36 213.371460 185.917786 9.167069 5.200446 6.151311 -43.834991 283.155151
[eye_left_bone]
35 -24.626970 125.451866 -64.772606 0.000000 -90.000000 -99.840431 143.318359
36 -24.626970 125.451866 -64.772606 0.000000 -90.000000 -99.840431 143.318359
[eye_right_bone]
35 -24.626970 125.451866 64.327362 0.000000 -89.965736 80.156380 143.117676
36 -24.626970 125.451866 64.327362 0.000000 -89.965736 80.156380 143.117676
[L_forearm]
35 322.776093 0.000000 -0.000119 0.000119 -0.002344 -95.807457 322.776093
36 322.776093 0.000000 -0.000119 0.000119 -0.002344 -95.807457 322.776093
[L_front_hand]
35 241.149185 -0.042021 -3.300071 -178.667953 -1.835447 -27.422350 241.171753
36 241.149185 -0.042021 -3.300071 -178.667953 -1.835447 -27.422350 241.171753
[L_weapon_bone]
35 156.183838 0.000000 0.000000 0.000014 0.000007 0.000001 156.183838
36 156.183838 0.000000 0.000000 0.000014 0.000007 0.000001 156.183838
[L_front_hand01_01]
35 86.095154 20.947098 -0.655860 -0.366594 -0.477154 75.385574 88.609184
36 86.095154 20.947098 -0.655860 -0.366594 -0.477154 75.385574 88.609184
[L_front_hand02_01]
35 86.935165 -11.437475 24.513514 154.399796 -59.883835 -61.369587 91.046425
36 86.935165 -11.437475 24.513514 154.399796 -59.883835 -61.369587 91.046425
[L_front_hand03_01]
35 86.637497 -14.123976 -20.424902 -153.913849 58.118130 -62.702866 90.126129
36 86.637497 -14.123976 -20.424902 -153.913849 58.118122 -62.702866 90.126129
[L_front_hand01_02]
35 71.020905 -0.000179 0.000030 0.000334 -0.002323 -106.370628 71.020905
36 71.020905 -0.000179 0.000030 0.000334 -0.002323 -106.371452 71.020905
[L_front_hand02_02]
35 71.020927 -0.000119 0.000060 0.000334 -0.002323 -106.370628 71.020927
36 71.020927 -0.000119 0.000060 0.000334 -0.002323 -106.371452 71.020927
[L_front_hand03_02]
35 71.020905 -0.000060 0.000060 0.000334 -0.002323 -106.370628 71.020905
36 71.020905 -0.000060 0.000060 0.000334 -0.002323 -106.371452 71.020905
[R_forearm]
35 322.776428 -0.000060 0.000030 0.209504 0.012586 -94.339050 322.776428
36 322.776428 -0.000060 0.000030 0.209504 0.012586 -94.339050 322.776428
[R_front_hand]
35 238.847015 -0.006795 2.210259 -2.635298 -10.645461 -26.312506 238.857239
36 238.847015 -0.006795 2.210259 -2.635298 -10.645461 -26.312506 238.857239
[R_weapon_bone]
35 155.664093 0.002503 -0.000030 0.003487 0.001180 -90.988930 155.664078
36 155.664093 0.002503 -0.000030 0.003487 0.001180 -90.988930 155.664078
[R_front_hand01_01]
35 87.624611 14.231146 22.918642 -154.633499 -59.950619 61.746044 91.683487
36 87.624611 14.231146 22.918642 -154.633499 -59.950619 61.746044 91.683487
[R_front_hand02_01]
35 89.356956 14.367283 -19.491137 154.602661 58.302849 63.744389 92.579636
36 89.356956 14.367283 -19.491137 154.602661 58.302849 63.744389 92.579636
[R_front_hand03_01]
35 87.286232 -22.307278 -0.143439 0.162155 -0.423168 -75.767921 90.091743
36 87.286232 -22.307278 -0.143439 0.162155 -0.423168 -75.767921 90.091743
[R_front_hand01_02]
35 71.020905 0.000060 0.000119 0.002323 -0.000334 106.381714 71.020905
36 71.020905 0.000060 0.000119 0.002323 -0.000334 106.381714 71.020905
[R_front_hand02_02]
35 71.020844 -0.000030 -0.000119 0.002323 -0.000334 106.381714 71.020836
36 71.020844 -0.000030 -0.000119 0.002323 -0.000334 106.381714 71.020836
[R_front_hand03_02]
35 71.020905 0.000000 0.000030 0.002323 -0.000334 106.381714 71.020905
36 71.020905 0.000000 0.000030 0.002323 -0.000334 106.381714 71.020905
[null_rope01_connect]
35 328.732483 0.000000 -0.000238 -133.391327 -57.104282 175.145798 328.732483
36 328.732483 0.000000 -0.000238 -131.984314 -57.789944 173.471710 328.732483
[Rope1_Seg01]
35 0.000000 0.000000 0.000000 102.994995 4.740829 -152.972122 0.000000
36 0.000000 0.000000 0.000000 114.933739 14.125906 -153.505920 0.000000
[Rope1_Seg02]
35 139.999863 -0.000179 0.000000 56.766140 -35.487465 -37.614609 139.999863
36 139.999863 -0.000179 0.000000 55.577717 -43.955856 -33.096214 139.999863
[Rope1_Seg03]
35 139.999924 0.000060 -0.000060 3.308748 -58.375702 4.656380 139.999924
36 139.999924 0.000060 -0.000060 -6.183235 -51.733986 15.379269 139.999924
[Rope1_Seg04]
35 139.999924 -0.000060 -0.000119 -1.478915 -10.283088 9.401614 139.999924
36 139.999924 -0.000060 -0.000119 -0.714255 -7.936223 8.655892 139.999924
[Rope1_Seg05]
35 139.999832 0.000119 -0.000060 -0.231982 -4.271460 4.668733 139.999832
36 139.999832 0.000119 -0.000060 0.185019 -3.202714 4.242521 139.999832
[Rope1_Seg06]
35 139.999954 0.000119 -0.000060 -0.545481 -2.684805 2.023066 139.999954
36 139.999954 0.000119 -0.000060 -0.313769 -2.218949 1.981542 139.999954
[Rope1_Seg07]
35 139.999985 0.000060 0.000000 -0.368046 -1.690859 1.253569 139.999985
36 139.999985 0.000060 0.000000 -0.206647 -1.410670 1.250637 139.999985
[Rope1_Seg09]
35 121.602913 0.000119 -0.000089 -89.793175 -1.359789 0.847147 121.602913
36 121.602913 0.000119 -0.000089 -89.793175 -1.359789 0.847147 121.602913
[L_mid_hand01]
35 103.859421 1.038730 8.195221 130.544373 -67.584534 -38.866943 104.187431
36 103.859421 1.038730 8.195221 130.544373 -67.584534 -38.866943 104.187431
[L_mid_hand02]
35 105.572853 -4.139662 -10.864139 -168.923172 43.409309 -73.498886 106.211075
36 105.572853 -4.139662 -10.864139 -168.923172 43.409309 -73.498886 106.211075
[L_mid_hand03]
35 104.641464 17.579376 -3.913581 -6.012627 17.808174 74.893669 106.179977
36 104.641464 17.579376 -3.913581 -6.012627 17.808174 74.893669 106.179977
[null_rope02_connect]
35 328.732849 0.000179 -0.000119 -121.090591 57.238708 24.070045 328.732849
36 328.732849 0.000179 -0.000119 -123.201492 55.318451 23.558109 328.732849
[Rope2_Seg01]
35 0.000047 0.000037 0.000115 43.070553 7.182985 -46.752861 0.000130
36 0.000047 0.000034 0.000119 28.136263 5.357813 -43.532932 0.000132
[Rope2_Seg02]
35 139.999741 -0.000060 -0.000119 -134.263519 19.815422 -1.708623 139.999756
36 139.999741 -0.000060 -0.000119 -81.730545 14.819212 2.848685 139.999756
[Rope2_Seg03]
35 140.000107 0.000030 0.000000 -50.507339 -38.459034 72.294579 140.000107
36 140.000107 0.000030 0.000000 -57.343586 -2.778168 76.749878 140.000107
[Rope2_Seg04]
35 139.999802 0.000000 -0.000060 -3.652970 -27.485704 17.508652 139.999802
36 139.999802 0.000000 -0.000060 -5.505884 -31.541449 22.797829 139.999802
[Rope2_Seg05]
35 139.999985 -0.000060 0.000119 0.646026 -6.203636 4.480024 139.999985
36 139.999985 -0.000060 0.000119 0.552048 -5.148802 3.621198 139.999985
[Rope2_Seg06]
35 139.999893 -0.000030 -0.000119 0.344754 -2.997365 2.016235 139.999893
36 139.999893 -0.000030 -0.000119 0.384106 -2.804875 1.961339 139.999893
[Rope2_Seg07]
35 139.999893 0.000060 -0.000060 0.226276 -1.731810 1.175471 139.999893
36 139.999893 0.000060 -0.000060 0.251958 -1.652909 1.165353 139.999893
[Rope2_Seg09]
35 121.338966 0.000089 -0.000060 33.793236 -1.359788 -0.847141 121.338966
36 121.338966 0.000089 -0.000060 33.793236 -1.359788 -0.847141 121.338966
[R_mid_hand01]
35 104.680779 11.144459 -10.335981 -16.212059 45.237240 70.462852 105.778534
36 104.680779 11.144459 -10.335981 -16.212059 45.237240 70.462852 105.778534
[R_mid_hand02]
35 104.070427 2.443552 8.231699 49.067375 -67.749794 39.286476 104.424065
36 104.070427 2.443552 8.231699 49.067368 -67.749771 39.286453 104.424065
[R_mid_hand03]
35 106.028137 -11.221827 -5.996406 -177.101105 15.551026 -76.585571 106.788818
36 106.028137 -11.221827 -5.996406 -177.101105 15.551026 -76.585571 106.788818
[spine02]
35 129.756927 0.001550 0.000119 -1.023899 -3.926965 6.770993 129.756927
36 129.756927 0.001550 0.000119 -1.023899 -3.926965 6.770993 129.756927
[spine03]
35 78.614334 0.087202 -4.898872 1.040681 4.146420 4.212376 78.766869
36 78.614349 0.087196 -4.898872 1.040681 4.146420 4.212376 78.766884
[pelvis]
35 169.435242 0.051022 0.000000 0.019518 -0.190233 -10.721436 169.435257
36 169.435242 0.051022 0.000000 0.019518 -0.190233 -10.721436 169.435257
[null_rope03_connect]
35 -1.257226 -2.466202 137.391083 -2.466748 -86.123947 99.489281 137.418976
36 -1.257226 -2.466202 137.391083 3.546651 -84.462463 93.499725 137.418976
[null_rope04_connect]
35 -1.259640 -2.480268 -137.844437 -2.466748 -86.123947 99.489281 137.872513
36 -1.259640 -2.480268 -137.844437 3.546651 -84.462463 93.499725 137.872513
[Rope3_Seg01]
35 -0.000005 -0.000480 -0.000153 -135.740204 -27.900925 -70.029701 0.000504
36 -0.000004 -0.000492 -0.000153 -136.736847 -28.426765 -68.030869 0.000515
[Rope3_Seg02]
35 139.999924 -0.000119 0.000060 -16.189266 1.192784 -39.853100 139.999924
36 139.999924 -0.000119 0.000060 -17.871431 3.997077 -38.132252 139.999924
[Rope3_Seg03]
35 139.999924 -0.000119 0.000119 -23.848030 13.684665 -16.696259 139.999924
36 139.999924 -0.000119 0.000119 -24.940763 17.012280 -17.270174 139.999924
[Rope3_Seg04]
35 139.999924 0.000119 0.000000 -60.853767 6.881304 -40.861561 139.999924
36 139.999924 0.000119 0.000000 -66.646599 10.115760 -48.748306 139.999924
[Rope3_Seg05]
35 139.999924 -0.000238 0.000060 -62.981789 46.147404 -30.999743 139.999924
36 139.999924 -0.000238 0.000060 -47.198662 45.638531 -21.111738 139.999924
[Rope3_Seg06]
35 139.999893 -0.000119 -0.000060 -1.349916 8.712986 4.344421 139.999893
36 139.999893 -0.000119 -0.000060 -1.186636 7.396067 3.092424 139.999893
[Rope3_Seg07]
35 139.999771 0.000060 -0.000119 -0.082717 3.976070 2.131790 139.999771
36 139.999771 0.000060 -0.000119 -0.091873 3.584550 1.597077 139.999771
[Rope3_Seg08]
35 139.999985 -0.000060 0.000000 0.278859 2.061522 1.109767 139.999985
36 139.999985 -0.000060 0.000000 0.262987 1.894055 0.846900 139.999985
[Rope3_Seg09]
35 90.185997 -0.000179 -0.000060 89.793228 -1.359877 -0.847183 90.185997
36 90.185997 -0.000179 -0.000060 89.793228 -1.359877 -0.847183 90.185997
[R_rear_hand01]
35 103.366196 -6.073594 -10.757982 -177.714203 24.565960 -73.910950 104.101845
36 103.366196 -6.073594 -10.757982 -177.714203 24.565960 -73.910950 104.101845
[R_rear_hand02]
35 100.509819 12.039542 -7.992327 -12.874829 36.868488 72.167213 101.543350
36 100.509819 12.039542 -7.992327 -12.874829 36.868488 72.167213 101.543350
[R_rear_hand03]
35 101.539970 5.215704 5.435467 71.484581 -71.816628 21.513813 101.819031
36 101.539970 5.215704 5.435467 71.484581 -71.816628 21.513813 101.819031
[Rope4_Seg01]
35 -0.000047 -0.000047 0.000000 55.827377 -27.571503 -114.299225 0.000067
36 -0.000047 -0.000042 0.000000 56.335979 -26.592159 -116.350250 0.000063
[Rope4_Seg02]
35 139.999985 0.000060 0.000119 11.105016 -32.849937 2.132024 139.999985
36 139.999985 0.000060 0.000119 12.417712 -33.447708 2.350139 139.999985
[Rope4_Seg03]
35 139.999924 0.000000 -0.000238 34.538284 -26.842554 20.674097 139.999924
36 139.999924 0.000000 -0.000238 36.824650 -26.540136 22.269480 139.999924
[Rope4_Seg04]
35 139.999985 0.000000 0.000119 54.681969 -36.074417 28.603750 139.999985
36 139.999985 0.000000 0.000119 54.897129 -38.380215 33.650848 139.999985
[Rope4_Seg05]
35 139.999802 -0.000060 -0.000119 28.304623 -0.593928 43.873562 139.999802
36 139.999802 -0.000060 -0.000119 24.278126 2.964935 42.389732 139.999802
[Rope4_Seg06]
35 139.999924 0.000000 0.000060 2.043191 4.404782 7.168402 139.999924
36 139.999924 0.000000 0.000060 1.542208 3.978586 6.388375 139.999924
[Rope4_Seg07]
35 139.999802 0.000000 0.000000 0.761511 2.270241 3.381036 139.999802
36 139.999802 0.000000 0.000000 0.608192 2.082850 3.149231 139.999802
[Rope4_Seg08]
35 139.999924 0.000000 0.000119 -1.196032 1.232218 1.784354 139.999924
36 139.999924 0.000000 0.000119 -1.257932 1.133099 1.680894 139.999924
[Rope4_Seg09]
35 90.185791 0.000060 0.000060 -135.617828 2.228885 0.850567 90.185791
36 90.185791 0.000060 0.000060 -135.617828 2.228885 0.850567 90.185791
[L_rear_hand01]
35 101.696655 -8.392275 -7.654577 -12.874829 -36.868488 107.832764 102.329041
36 101.696655 -8.392275 -7.654577 -12.874829 -36.868488 107.832764 102.329041
[L_rear_hand02]
35 102.726799 -1.568258 5.773216 71.484581 71.816628 158.486160 102.900848
36 102.726799 -1.568258 5.773216 71.484581 71.816628 158.486160 102.900848
[L_rear_hand03]
35 104.552910 9.721220 -10.420293 -177.714203 -24.565960 -106.089035 105.519653
36 104.552910 9.721220 -10.420293 -177.714203 -24.565960 -106.089035 105.519653
